<?xml version="1.0" ?><svg enable-background="new 0 0 32 32" version="1.1" viewBox="0 0 32 32" xml:space="preserve" xmlns="http://www.w3.org/2000/svg" xmlns:xlink="http://www.w3.org/1999/xlink"><g id="Outline_Color_copy_2"><g><path d="M28,1c1.654,0,3,1.346,3,3v24c0,1.654-1.346,3-3,3H4c-1.654,0-3-1.346-3-3V4c0-1.654,1.346-3,3-3H28 M28,0H4    C1.8,0,0,1.8,0,4v24c0,2.2,1.8,4,4,4h24c2.2,0,4-1.8,4-4V4C32,1.8,30.2,0,28,0L28,0z"/></g><path d="M19.613,25.958h-2.653h-2.656c0,0,0.007-1.575,0-2.656c-3.633,0.782-4.647-1.992-4.647-1.992   c-0.664-1.328-1.328-1.992-1.328-1.992c-1.328-0.789,0-0.664,0-0.664c1.328,0,1.992,1.328,1.992,1.328   c1.165,1.978,3.238,1.66,3.983,1.328c0-0.664,0.291-1.668,0.664-1.992c-2.9-0.327-5.314-1.992-5.314-5.311s0.667-3.983,1.33-4.647   c-0.134-0.327-0.69-1.537,0.021-3.319c0,0,1.305,0,2.632,1.992c0.658-0.658,2.656-0.664,3.32-0.664   c0.663,0,2.661,0.006,3.318,0.664c1.328-1.992,2.636-1.992,2.636-1.992c0.71,1.783,0.155,2.992,0.02,3.319   c0.664,0.664,1.328,1.328,1.328,4.647s-2.411,4.984-5.311,5.311c0.374,0.324,0.664,1.467,0.664,1.992L19.613,25.958L19.613,25.958z   " id="Cat_14_"/></g></svg>