<?xml version="1.0" ?><svg enable-background="new 0 0 32 32" version="1.1" viewBox="0 0 32 32" xml:space="preserve" xmlns="http://www.w3.org/2000/svg" xmlns:xlink="http://www.w3.org/1999/xlink"><g id="Outline_Color_copy_2"><path d="M28,1c1.654,0,3,1.346,3,3v24c0,1.654-1.346,3-3,3H4c-1.654,0-3-1.346-3-3V4c0-1.654,1.346-3,3-3H28 M28,0H4   C1.8,0,0,1.8,0,4v24c0,2.2,1.8,4,4,4h24c2.2,0,4-1.8,4-4V4C32,1.8,30.2,0,28,0L28,0z"/><path d="M24.809,14.281c0.115,0.613,0.177,1.255,0.177,1.926c0,5.239-3.507,8.964-8.803,8.964c-5.066,0-9.17-4.104-9.17-9.17   s4.104-9.17,9.17-9.17c2.476,0,4.545,0.911,6.133,2.39l-2.585,2.585v-0.006c-0.963-0.917-2.183-1.387-3.547-1.387   c-3.026,0-5.485,2.556-5.485,5.582c0,3.026,2.459,5.588,5.485,5.588c2.745,0,4.614-1.57,4.998-3.725h-4.998v-3.576L24.809,14.281   L24.809,14.281z"/></g></svg>